<svg width="24" height="25" viewBox="0 0 24 25" fill="none" xmlns="http://www.w3.org/2000/svg">
<g clip-path="url(#clip0_523_29657)">
<path d="M24 12.2085C24 5.58107 18.6274 0.208496 12 0.208496C5.37258 0.208496 0 5.58107 0 12.2085C0 18.1979 4.3882 23.1625 10.125 24.0627V15.6772H7.07812V12.2085H10.125V9.56475C10.125 6.55725 11.9166 4.896 14.6576 4.896C15.9701 4.896 17.3438 5.13037 17.3438 5.13037V8.0835H15.8306C14.34 8.0835 13.875 9.00857 13.875 9.9585V12.2085H17.2031L16.6711 15.6772H13.875V24.0627C19.6118 23.1625 24 18.1979 24 12.2085Z" fill="#98A2B3"/>
</g>
<defs>
<clipPath id="clip0_523_29657">
<rect width="24" height="24" fill="white" transform="translate(0 0.208496)"/>
</clipPath>
</defs>
</svg>
