<svg width="24" height="25" viewBox="0 0 24 25" fill="none" xmlns="http://www.w3.org/2000/svg">
<path d="M12 2.36943C15.2063 2.36943 15.5859 2.3835 16.8469 2.43975C18.0188 2.49131 18.6516 2.68818 19.0734 2.85225C19.6313 3.06787 20.0344 3.33037 20.4516 3.74756C20.8734 4.16943 21.1313 4.56787 21.3469 5.12568C21.5109 5.54756 21.7078 6.18506 21.7594 7.35225C21.8156 8.61787 21.8297 8.99756 21.8297 12.1991C21.8297 15.4054 21.8156 15.7851 21.7594 17.046C21.7078 18.2179 21.5109 18.8507 21.3469 19.2726C21.1313 19.8304 20.8687 20.2335 20.4516 20.6507C20.0297 21.0726 19.6313 21.3304 19.0734 21.546C18.6516 21.7101 18.0141 21.9069 16.8469 21.9585C15.5813 22.0147 15.2016 22.0288 12 22.0288C8.79375 22.0288 8.41406 22.0147 7.15313 21.9585C5.98125 21.9069 5.34844 21.7101 4.92656 21.546C4.36875 21.3304 3.96563 21.0679 3.54844 20.6507C3.12656 20.2288 2.86875 19.8304 2.65313 19.2726C2.48906 18.8507 2.29219 18.2132 2.24063 17.046C2.18438 15.7804 2.17031 15.4007 2.17031 12.1991C2.17031 8.99287 2.18438 8.61318 2.24063 7.35225C2.29219 6.18037 2.48906 5.54756 2.65313 5.12568C2.86875 4.56787 3.13125 4.16475 3.54844 3.74756C3.97031 3.32568 4.36875 3.06787 4.92656 2.85225C5.34844 2.68818 5.98594 2.49131 7.15313 2.43975C8.41406 2.3835 8.79375 2.36943 12 2.36943ZM12 0.208496C8.74219 0.208496 8.33438 0.222559 7.05469 0.278809C5.77969 0.335059 4.90313 0.541309 4.14375 0.836621C3.35156 1.146 2.68125 1.55381 2.01563 2.22412C1.34531 2.88975 0.9375 3.56006 0.628125 4.34756C0.332812 5.11162 0.126563 5.9835 0.0703125 7.2585C0.0140625 8.54287 0 8.95068 0 12.2085C0 15.4663 0.0140625 15.8741 0.0703125 17.1538C0.126563 18.4288 0.332812 19.3054 0.628125 20.0647C0.9375 20.8569 1.34531 21.5272 2.01563 22.1929C2.68125 22.8585 3.35156 23.271 4.13906 23.5757C4.90313 23.871 5.775 24.0772 7.05 24.1335C8.32969 24.1897 8.7375 24.2038 11.9953 24.2038C15.2531 24.2038 15.6609 24.1897 16.9406 24.1335C18.2156 24.0772 19.0922 23.871 19.8516 23.5757C20.6391 23.271 21.3094 22.8585 21.975 22.1929C22.6406 21.5272 23.0531 20.8569 23.3578 20.0694C23.6531 19.3054 23.8594 18.4335 23.9156 17.1585C23.9719 15.8788 23.9859 15.471 23.9859 12.2132C23.9859 8.95537 23.9719 8.54756 23.9156 7.26787C23.8594 5.99287 23.6531 5.11631 23.3578 4.35693C23.0625 3.56006 22.6547 2.88975 21.9844 2.22412C21.3188 1.5585 20.6484 1.146 19.8609 0.841309C19.0969 0.545996 18.225 0.339746 16.95 0.283496C15.6656 0.222559 15.2578 0.208496 12 0.208496Z" fill="#98A2B3"/>
<path d="M12 6.04443C8.59688 6.04443 5.83594 8.80537 5.83594 12.2085C5.83594 15.6116 8.59688 18.3726 12 18.3726C15.4031 18.3726 18.1641 15.6116 18.1641 12.2085C18.1641 8.80537 15.4031 6.04443 12 6.04443ZM12 16.2069C9.79219 16.2069 8.00156 14.4163 8.00156 12.2085C8.00156 10.0007 9.79219 8.21006 12 8.21006C14.2078 8.21006 15.9984 10.0007 15.9984 12.2085C15.9984 14.4163 14.2078 16.2069 12 16.2069Z" fill="#98A2B3"/>
<path d="M19.8469 5.80064C19.8469 6.59751 19.2 7.2397 18.4078 7.2397C17.6109 7.2397 16.9688 6.59282 16.9688 5.80064C16.9688 5.00376 17.6156 4.36157 18.4078 4.36157C19.2 4.36157 19.8469 5.00845 19.8469 5.80064Z" fill="#98A2B3"/>
</svg>
