<svg width="89" height="27" viewBox="0 0 89 27" fill="none" xmlns="http://www.w3.org/2000/svg">
<path d="M15.28 9.77017C17.92 10.0582 20.032 10.5262 21.616 11.1742C23.224 11.8222 24.388 12.6742 25.108 13.7302C25.828 14.7862 26.188 16.1062 26.188 17.6902C26.188 19.4182 25.624 20.9302 24.496 22.2262C23.392 23.4982 21.856 24.4822 19.888 25.1782C17.92 25.8502 15.676 26.1862 13.156 26.1862C10.348 26.1862 7.972 25.8382 6.028 25.1422C4.084 24.4462 2.632 23.5222 1.672 22.3702C0.712 21.1942 0.232 19.9102 0.232 18.5182C0.232 18.2782 0.304 18.0862 0.448 17.9422C0.616 17.7982 0.82 17.7262 1.06 17.7262H8.44C8.944 17.7262 9.352 17.8822 9.664 18.1942C10.072 18.5782 10.528 18.8422 11.032 18.9862C11.536 19.1062 12.244 19.1662 13.156 19.1662C15.436 19.1662 16.576 18.8182 16.576 18.1222C16.576 17.8342 16.42 17.5942 16.108 17.4022C15.82 17.1862 15.292 17.0062 14.524 16.8622C13.78 16.6942 12.676 16.5262 11.212 16.3582C7.924 15.9742 5.404 15.1582 3.652 13.9102C1.9 12.6382 1.024 10.8502 1.024 8.54617C1.024 6.91417 1.516 5.47417 2.5 4.22617C3.484 2.97817 4.876 2.00617 6.676 1.31017C8.5 0.61417 10.612 0.266171 13.012 0.266171C15.508 0.266171 17.692 0.66217 19.564 1.45417C21.436 2.22217 22.864 3.18217 23.848 4.33417C24.832 5.48617 25.324 6.61417 25.324 7.71817C25.324 7.95817 25.24 8.15017 25.072 8.29417C24.928 8.43817 24.724 8.51017 24.46 8.51017H16.72C16.312 8.51017 15.94 8.36617 15.604 8.07817C15.34 7.83817 15.028 7.64617 14.668 7.50217C14.308 7.35817 13.756 7.28617 13.012 7.28617C11.404 7.28617 10.6 7.62217 10.6 8.29417C10.6 8.65417 10.912 8.94217 11.536 9.15817C12.16 9.35017 13.408 9.55417 15.28 9.77017ZM40.7179 24.8542C40.6459 25.0702 40.4659 25.2862 40.1779 25.5022C39.9139 25.7182 39.5659 25.8262 39.1339 25.8262H34.0939C33.6379 25.8262 33.2539 25.6942 32.9419 25.4302C32.6539 25.1422 32.4859 24.8182 32.4379 24.4582L29.3059 1.52617V1.41817C29.3059 1.20217 29.3779 1.02217 29.5219 0.878171C29.6899 0.710171 29.8819 0.62617 30.0979 0.62617H36.2899C36.7699 0.62617 37.1539 0.77017 37.4419 1.05817C37.7539 1.34617 37.9339 1.70617 37.9819 2.13817L39.1339 13.1542L41.2219 7.43017C41.2939 7.19017 41.4619 6.96217 41.7259 6.74617C42.0139 6.50617 42.3739 6.38617 42.8059 6.38617H45.2539C45.6859 6.38617 46.0339 6.50617 46.2979 6.74617C46.5859 6.96217 46.7659 7.19017 46.8379 7.43017L48.9259 13.1542L50.0779 2.13817C50.1259 1.70617 50.2939 1.34617 50.5819 1.05817C50.8939 0.77017 51.2899 0.62617 51.7699 0.62617H57.9619C58.1779 0.62617 58.3579 0.710171 58.5019 0.878171C58.6699 1.02217 58.7539 1.20217 58.7539 1.41817V1.52617L55.6219 24.4582C55.5739 24.8182 55.3939 25.1422 55.0819 25.4302C54.7939 25.6942 54.4219 25.8262 53.9659 25.8262H48.9259C48.4939 25.8262 48.1339 25.7182 47.8459 25.5022C47.5819 25.2862 47.4139 25.0702 47.3419 24.8542L44.0299 17.2582L40.7179 24.8542ZM87.4319 10.6342C87.6959 10.6342 87.9239 10.7302 88.1159 10.9222C88.3079 11.1142 88.4039 11.3422 88.4039 11.6062V15.4222C88.4039 19.0702 87.1559 21.7822 84.6599 23.5582C82.1879 25.3102 78.9119 26.1862 74.8319 26.1862C70.7519 26.1862 67.4639 25.3102 64.9679 23.5582C62.4959 21.7822 61.2599 19.0462 61.2599 15.3502V11.1022C61.2599 8.65417 61.8599 6.62617 63.0599 5.01817C64.2599 3.38617 65.8799 2.18617 67.9199 1.41817C69.9599 0.650171 72.2639 0.266171 74.8319 0.266171C77.9039 0.266171 80.4359 0.77017 82.4279 1.77817C84.4199 2.78617 85.8599 3.92617 86.7479 5.19817C87.6599 6.47017 88.1159 7.50217 88.1159 8.29417C88.1159 8.51017 88.0319 8.70217 87.8639 8.87017C87.7199 9.01417 87.5399 9.08617 87.3239 9.08617H79.1879C78.7079 9.08617 78.3599 8.95417 78.1439 8.69017C77.3999 7.75417 76.2959 7.28617 74.8319 7.28617C73.7279 7.28617 72.8039 7.53817 72.0599 8.04217C71.3399 8.54617 70.9799 9.19417 70.9799 9.98617V16.1062C70.9799 17.0662 71.3399 17.8222 72.0599 18.3742C72.7799 18.9022 73.7039 19.1662 74.8319 19.1662C76.3199 19.1662 77.4119 18.9142 78.1079 18.4102C78.8279 17.8822 79.1999 17.2702 79.2239 16.5742H76.9919C76.7279 16.5742 76.4999 16.4782 76.3079 16.2862C76.1159 16.0942 76.0199 15.8662 76.0199 15.6022V11.6062C76.0199 11.3422 76.1159 11.1142 76.3079 10.9222C76.4999 10.7302 76.7279 10.6342 76.9919 10.6342H87.4319Z" fill="white"/>
</svg>
