<svg width="24" height="25" viewBox="0 0 24 25" fill="none" xmlns="http://www.w3.org/2000/svg">
<path d="M7.55016 21.9585C16.6045 21.9585 21.5583 14.4552 21.5583 7.95036C21.5583 7.73942 21.5536 7.52379 21.5442 7.31286C22.5079 6.61596 23.3395 5.75275 24 4.76379C23.1025 5.1631 22.1496 5.42388 21.1739 5.53723C22.2013 4.9214 22.9705 3.95397 23.3391 2.81426C22.3726 3.38705 21.3156 3.79111 20.2134 4.00911C19.4708 3.22006 18.489 2.69761 17.4197 2.52255C16.3504 2.34748 15.2532 2.52955 14.2977 3.04059C13.3423 3.55164 12.5818 4.3632 12.1338 5.34981C11.6859 6.33641 11.5754 7.44311 11.8195 8.49879C9.86249 8.40059 7.94794 7.8922 6.19998 7.00659C4.45203 6.12099 2.90969 4.87793 1.67297 3.35801C1.0444 4.44174 0.852057 5.72414 1.13503 6.94459C1.418 8.16503 2.15506 9.23194 3.19641 9.92848C2.41463 9.90366 1.64998 9.69318 0.965625 9.31442V9.37536C0.964925 10.5126 1.3581 11.6151 2.07831 12.4953C2.79852 13.3754 3.80132 13.9791 4.91625 14.2035C4.19206 14.4016 3.43198 14.4305 2.69484 14.2879C3.00945 15.2659 3.62157 16.1214 4.44577 16.7348C5.26997 17.3483 6.26512 17.6891 7.29234 17.7097C5.54842 19.0796 3.39417 19.8226 1.17656 19.8191C0.783287 19.8185 0.390399 19.7944 0 19.7469C2.25286 21.1922 4.87353 21.9599 7.55016 21.9585Z" fill="#98A2B3"/>
</svg>
